<?xml version="1.0"?>
<svg xmlns="http://www.w3.org/2000/svg" height="512px" viewBox="0 0 58 51" width="512px"><g><g id="Page-1" fill="none" fill-rule="evenodd"><g id="005---Favourite" fill-rule="nonzero"><path id="Shape" d="m50.76 20.85c-.5798495 1.2776501-1.3336613 2.4689419-2.24 3.54-.6463138.8115535-1.3733775 1.5553698-2.17 2.22-15.11 14.2-18.83 17.71-18.98 17.85-.7714606.7199364-1.9685394.7199364-2.74 0-21.32-20.1-20.38-19.07-21.15-20.07-.9063387-1.0710581-1.6601505-2.2623499-2.24-3.54-4.28-9.46 2.97-20.85 14.77-20.85 3.5993516-.02003574 7.1069158 1.13510803 9.99 3.29 2.8830842-2.15489197 6.3906484-3.31003574 9.99-3.29 11.8 0 19.05 11.39 14.77 20.85z" fill="#df4d60" data-original="#DF4D60"/><path id="Shape" d="m50.76 20.85c-5.4 5.53-14.48 9.15-24.76 9.15s-19.36-3.62-24.76-9.15c-4.28-9.46 2.97-20.85 14.77-20.85 3.5993516-.02003574 7.1069158 1.13510803 9.99 3.29 2.8830842-2.15489197 6.3906484-3.31003574 9.99-3.29 11.8 0 19.05 11.39 14.77 20.85z" fill="#ff5364" data-original="#FF5364"/><path id="Shape" d="m12 5.6c-.4950079.00168945-.9167611-.35903334-.991843-.84831693-.0750819-.48928358.2191048-.95986927.691843-1.10668307 1.3952754-.43393862 2.8488175-.65146406 4.31-.645.5522847 0 1 .44771525 1 1s-.4477153 1-1 1c-1.2571101-.0067684-2.5077661.18008796-3.708.554-.0978105.03030306-.199603.04580788-.302.046z" fill="#fb7b76" data-original="#FB7B76"/><path id="Shape" d="m6.721 23.04c-.30759145.0003188-.59821614-.1409366-.788-.383l-.18-.23c-2.91875999-3.3469934-3.57464532-8.1062858-1.67-12.118.55463575-1.17936115 1.29393275-2.26265069 2.19-3.209.37941962-.40151101 1.01248899-.41941962 1.414-.04s.41941962 1.01248899.04 1.414c-.74813503.79047018-1.36493554 1.6955836-1.827 2.681-1.56817961 3.3192004-1.01619445 7.2526349 1.405 10.012l.2.256c.23597813.300982.27961583.7101985.11241418 1.0541744s-.51595414.5624574-.89841418.5628256z" fill="#fb7b76" data-original="#FB7B76"/><path id="Shape" d="m42.187 17.769 4.221 8.973c.1850647.4016241.558292.6844516.995.754l9.467 1.444c.5026467.0914589.9135368.4533229 1.0677858.9403811.1542491.4870582.026576 1.0194826-.3317858 1.3836189l-6.874 7.03c-.3069523.3185968-.4452534.7635334-.373 1.2l1.619 9.906c.0986152.5022288-.0997109 1.0164869-.5100095 1.3224506s-.9597648.3493417-1.4129905.1115494l-8.434-4.652c-.386364-.2139282-.855636-.2139282-1.242 0l-8.434 4.652c-.4532257.2377923-1.0026919.1944143-1.4129905-.1115494s-.6086247-.8202218-.5100095-1.3224506l1.619-9.908c.0722534-.4364666-.0660477-.8814032-.373-1.2l-6.874-7.03c-.3583618-.3641363-.4860349-.8965607-.3317858-1.3836189.154249-.4870582.5651391-.8489222 1.0677858-.9403811l9.47-1.438c.436708-.0695484.8099353-.3523759.995-.754l4.221-8.973c.2091384-.4668639.6726406-.7676701 1.1842068-.7685331.5115663-.0008631.9760807.2983775 1.1867932.7645331z" fill="#f0c419" data-original="#F0C419" class="active-path"/></g></g></g> </svg>
