<?xml version="1.0"?>
<svg xmlns="http://www.w3.org/2000/svg" xmlns:xlink="http://www.w3.org/1999/xlink" version="1.1" id="Capa_1" x="0px" y="0px" viewBox="0 0 512 512" style="enable-background:new 0 0 512 512;" xml:space="preserve" width="512px" height="512px" class=""><g><polygon style="fill:#754100" points="347.474,295.424 326.329,316.66 326.369,316.7 306.616,336.689 296.044,347.307   460.344,510.895 512,459.24 " data-original="#FFDA44" class="" data-old_color="#FFDA44"/><path style="fill:#69E781" d="M194.784,1.105C87.38,1.105,0,88.485,0,195.888s87.38,194.784,194.784,194.784  s194.784-87.38,194.784-194.784S302.187,1.105,194.784,1.105z" data-original="#2488FF" class="" data-old_color="#2488FF"/><path style="fill:#00AF80" d="M194.784,390.672c107.404,0,194.784-87.38,194.784-194.784S302.187,1.105,194.784,1.105V390.672z" data-original="#005ECE" class="" data-old_color="#005ECE"/><path style="fill:#FFFFFF;" d="M194.784,56.428c-77.067,0-139.768,62.7-139.768,139.768s62.7,139.767,139.768,139.767  s139.768-62.7,139.768-139.768S271.851,56.428,194.784,56.428z" data-original="#FFFFFF" class=""/><path style="fill:#E3E9ED" d="M194.784,335.963c77.067,0,139.768-62.7,139.768-139.768s-62.7-139.767-139.768-139.767V335.963z" data-original="#D8D7DA" class="active-path" data-old_color="#D8D7DA"/></g> </svg>
